<svg width="21" height="20" viewBox="0 0 21 20" fill="none" xmlns="http://www.w3.org/2000/svg">
<path d="M18.4688 9.375H13C12.5027 9.375 12.0258 9.17746 11.6742 8.82583C11.3225 8.4742 11.125 7.99728 11.125 7.5V2.03125C11.125 1.98981 11.1085 1.95007 11.0792 1.92076C11.0499 1.89146 11.0102 1.875 10.9688 1.875H8.88867C8.81572 1.7399 8.73074 1.61164 8.63477 1.4918C8.18438 0.932812 7.51523 0.625 6.75 0.625C5.27812 0.625 4.25 1.78164 4.25 3.4375V9.0625C4.25 10.0391 5.04453 10.625 5.8125 10.625C6.01831 10.6272 6.22251 10.5884 6.41309 10.5106C6.60368 10.4329 6.77682 10.3179 6.92237 10.1724C7.06791 10.0268 7.18292 9.85368 7.26064 9.66309C7.33837 9.47251 7.37725 9.26831 7.375 9.0625V3.125C7.375 2.95924 7.30915 2.80027 7.19194 2.68306C7.07473 2.56585 6.91576 2.5 6.75 2.5C6.58424 2.5 6.42527 2.56585 6.30806 2.68306C6.19085 2.80027 6.125 2.95924 6.125 3.125V9.0625C6.12636 9.1039 6.1192 9.14515 6.10398 9.18368C6.08876 9.22221 6.06579 9.2572 6.03649 9.28649C6.0072 9.31579 5.97221 9.33876 5.93368 9.35398C5.89515 9.3692 5.85391 9.37636 5.8125 9.375C5.72539 9.375 5.5 9.31875 5.5 9.0625V3.4375C5.5 2.68203 5.82852 1.875 6.75 1.875C7.90977 1.875 8 3.05273 8 3.41328V8.8332C8 9.51484 7.78633 10.1313 7.39805 10.5699C7.00391 11.0156 6.45586 11.25 5.8125 11.25C5.16914 11.25 4.62109 11.0156 4.22695 10.5699C3.83867 10.1313 3.625 9.51484 3.625 8.8332V5.625C3.625 5.45924 3.55915 5.30027 3.44194 5.18306C3.32473 5.06585 3.16576 5 3 5C2.83424 5 2.67527 5.06585 2.55806 5.18306C2.44085 5.30027 2.375 5.45924 2.375 5.625V8.8332C2.375 10.8453 3.67148 12.3344 5.5 12.4867V16.875C5.5 17.538 5.76339 18.1739 6.23223 18.6428C6.70107 19.1116 7.33696 19.375 8 19.375H16.125C16.788 19.375 17.4239 19.1116 17.8928 18.6428C18.3616 18.1739 18.625 17.538 18.625 16.875V9.53125C18.625 9.48981 18.6085 9.45007 18.5792 9.42076C18.5499 9.39146 18.5102 9.375 18.4688 9.375Z" fill="white"/>
<path d="M13 8.125H18.0707C18.0861 8.12494 18.1011 8.12032 18.1139 8.11173C18.1267 8.10314 18.1367 8.09096 18.1426 8.07673C18.1485 8.06249 18.15 8.04684 18.147 8.03172C18.144 8.01661 18.1366 8.00272 18.1258 7.9918L12.5082 2.37422C12.4973 2.36336 12.4834 2.35597 12.4683 2.35298C12.4532 2.35 12.4375 2.35154 12.4233 2.35743C12.409 2.36331 12.3969 2.37328 12.3883 2.38606C12.3797 2.39885 12.3751 2.41389 12.375 2.4293V7.5C12.375 7.66576 12.4408 7.82473 12.5581 7.94194C12.6753 8.05915 12.8342 8.125 13 8.125Z" fill="white"/>
</svg>
