<svg width="64" height="64" viewBox="0 0 64 64" fill="none" xmlns="http://www.w3.org/2000/svg">
<rect width="64" height="64" rx="32" fill="#B4C9FB"/>
<path d="M44.5 17H19.5C18.1744 17.0014 16.9034 17.5287 15.9661 18.4661C15.0287 19.4034 14.5014 20.6744 14.5 22V42C14.5014 43.3256 15.0287 44.5966 15.9661 45.5339C16.9034 46.4713 18.1744 46.9986 19.5 47H44.5C45.8256 46.9986 47.0966 46.4713 48.0339 45.5339C48.9713 44.5966 49.4986 43.3256 49.5 42V22C49.4986 20.6744 48.9713 19.4034 48.0339 18.4661C47.0966 17.5287 45.8256 17.0014 44.5 17ZM38.25 22C38.9917 22 39.7167 22.2199 40.3334 22.632C40.9501 23.044 41.4307 23.6297 41.7145 24.3149C41.9984 25.0002 42.0726 25.7542 41.9279 26.4816C41.7833 27.209 41.4261 27.8772 40.9017 28.4017C40.3772 28.9261 39.709 29.2833 38.9816 29.4279C38.2542 29.5726 37.5002 29.4984 36.8149 29.2145C36.1297 28.9307 35.544 28.4501 35.132 27.8334C34.7199 27.2167 34.5 26.4917 34.5 25.75C34.501 24.7558 34.8965 23.8025 35.5995 23.0995C36.3025 22.3965 37.2558 22.001 38.25 22ZM19.5 44.5C18.837 44.5 18.2011 44.2366 17.7322 43.7678C17.2634 43.2989 17 42.663 17 42V36.7164L24.4094 30.1305C25.1243 29.4965 26.054 29.1588 27.0091 29.1864C27.9642 29.214 28.8729 29.6047 29.55 30.2789L34.6242 35.3422L25.4664 44.5H19.5ZM47 42C47 42.663 46.7366 43.2989 46.2678 43.7678C45.7989 44.2366 45.163 44.5 44.5 44.5H29.0023L38.4883 35.0141C39.1599 34.4429 40.0122 34.1283 40.8938 34.126C41.7754 34.1237 42.6293 34.4339 43.3039 35.0016L47 38.0812V42Z" fill="#224495"/>
</svg>
