<svg width="40" height="40" viewBox="0 0 40 40" fill="none" xmlns="http://www.w3.org/2000/svg">
<path fill-rule="evenodd" clip-rule="evenodd" d="M11.7767 8.91957C11.7517 9.01335 11.7716 9.11343 11.8306 9.19043C11.8896 9.26743 11.9812 9.31253 12.0783 9.31253H24.8228C25.9974 9.31253 26.9494 10.2647 26.9494 11.4393V33.7991C26.9494 33.9229 27.0225 34.0349 27.1358 34.0848C27.249 34.1347 27.381 34.113 27.4723 34.0294C27.8458 33.6877 28.1295 33.2388 28.2703 32.7134C29.6619 27.5199 32.9803 15.1351 34.372 9.94159C34.7652 8.47402 33.8943 6.96571 32.4267 6.57245C28.4366 5.50324 20.3942 3.34833 16.404 2.27912C14.9365 1.88586 13.4281 2.75687 13.0348 4.22429L11.7767 8.91957Z" fill="#3B478F"/>
<path fill-rule="evenodd" clip-rule="evenodd" d="M24.8228 9.3125C25.9973 9.3125 26.9493 10.2647 26.9493 11.4392V33.7991C26.9493 33.9228 27.0225 34.0349 27.1357 34.0848C27.249 34.1347 27.381 34.1129 27.4722 34.0294C27.8457 33.6876 28.1294 33.2388 28.2702 32.7134L29.4463 28.3242V12.0634C29.4463 10.5441 28.2147 9.3125 26.6954 9.3125H24.8228Z" fill="#343D70"/>
<path fill-rule="evenodd" clip-rule="evenodd" d="M5.48376 30.7846C5.48376 30.8674 5.51672 30.9468 5.5753 31.0054L12.2438 37.6738C12.3023 37.7324 12.3817 37.7652 12.4644 37.7652H24.8228C26.342 37.7652 27.5737 36.5336 27.5737 35.0144C27.5737 29.6376 27.5737 16.816 27.5737 11.4392C27.5737 9.91984 26.342 8.68823 24.8228 8.68823C20.6919 8.68823 12.3656 8.68823 8.23478 8.68823C6.71537 8.68823 5.48376 9.91984 5.48376 11.4392V30.7846Z" fill="#D9DEFB"/>
<path fill-rule="evenodd" clip-rule="evenodd" d="M17.7285 13.1744C16.9362 13.019 16.1212 13.019 15.329 13.1744L14.926 14.1756C14.1733 14.4114 13.4818 14.8106 12.9011 15.3446L11.8326 15.193C11.3018 15.8013 10.8945 16.5071 10.6329 17.271L11.2984 18.1204C11.1264 18.8903 11.1264 19.6888 11.2984 20.4587L10.6329 21.3082C10.8945 22.0721 11.3018 22.7778 11.8326 23.3862L12.9011 23.2346C13.4818 23.7685 14.1733 24.1678 14.926 24.4037L15.329 25.4048C16.1212 25.5603 16.9362 25.5603 17.7285 25.4048L18.1314 24.4037C18.8842 24.1678 19.5756 23.7685 20.1562 23.2346L21.2247 23.3862C21.7555 22.7778 22.163 22.0721 22.4245 21.3082L21.7589 20.4587C21.9311 19.6888 21.9311 18.8903 21.7589 18.1204L22.4245 17.271C22.163 16.5071 21.7555 15.8013 21.2247 15.193L20.1562 15.3446C19.5756 14.8106 18.8842 14.4114 18.1314 14.1756L17.7285 13.1744ZM16.5287 16.4852C18.0764 16.4852 19.333 17.7419 19.333 19.2896C19.333 20.8373 18.0764 22.0939 16.5287 22.0939C14.981 22.0939 13.7245 20.8373 13.7245 19.2896C13.7245 17.7419 14.981 16.4852 16.5287 16.4852Z" fill="#3B478F"/>
<path fill-rule="evenodd" clip-rule="evenodd" d="M12.1524 33.2233V33.3917L12.4645 33.7078H22.3028C22.9057 33.7078 23.3953 33.2182 23.3953 32.6154C23.3953 32.0125 22.9057 31.5229 22.3028 31.5229H12.0311C11.915 31.5229 11.8084 31.5875 11.7545 31.6904C11.7007 31.7934 11.7085 31.9176 11.7746 32.013C12.0129 32.3565 12.1524 32.7736 12.1524 33.2233Z" fill="#9CA8EE"/>
<path fill-rule="evenodd" clip-rule="evenodd" d="M10.7546 30.1272H22.3028C22.9057 30.1272 23.3952 29.6378 23.3952 29.0348C23.3952 28.4319 22.9057 27.9425 22.3028 27.9425H10.7548C10.1518 27.9425 9.66235 28.4319 9.66235 29.0348C9.66235 29.6378 10.1518 30.1272 10.7546 30.1272Z" fill="#9CA8EE"/>
<path fill-rule="evenodd" clip-rule="evenodd" d="M5.54126 30.9651C5.5513 30.9793 5.56268 30.9928 5.57527 31.0054L12.2437 37.6739C12.3023 37.7324 12.3817 37.7652 12.4644 37.7652H14.1814V34.4318C14.1814 32.5171 12.6294 30.9651 10.7149 30.9651H5.54126Z" fill="#BDC5F7"/>
<path fill-rule="evenodd" clip-rule="evenodd" d="M12.6018 31.5229H12.0311C11.915 31.5229 11.8084 31.5875 11.7545 31.6904C11.7007 31.7934 11.7085 31.9176 11.7746 32.013C12.0129 32.3565 12.1524 32.7736 12.1524 33.2233V33.3917L12.4645 33.7078H14.1058C13.912 32.7952 13.359 32.0154 12.6018 31.5229Z" fill="#7C8BE4"/>
<path fill-rule="evenodd" clip-rule="evenodd" d="M5.48376 30.4725V30.7846C5.48376 30.8674 5.51672 30.9468 5.5753 31.0054L12.2438 37.6739C12.3023 37.7325 12.3817 37.7653 12.4644 37.7653H12.7766V33.2234C12.7766 31.7041 11.545 30.4725 10.0256 30.4725H5.48376Z" fill="#3B478F"/>
</svg>
