<svg width="40" height="40" viewBox="0 0 40 40" fill="none" xmlns="http://www.w3.org/2000/svg">
<path d="M35.8792 26.075H4.10834V33.4583H35.8792C36.8583 33.4583 37.7973 33.0693 38.4896 32.377C39.1819 31.6847 39.5708 30.7457 39.5708 29.7666C39.5708 28.7875 39.1819 27.8485 38.4896 27.1562C37.7973 26.4639 36.8583 26.075 35.8792 26.075Z" fill="#645A84"/>
<path d="M35.8792 26.075H4.10834V33.4583H35.8792C36.8583 33.4583 37.7973 33.0693 38.4896 32.377C39.1819 31.6847 39.5708 30.7457 39.5708 29.7666C39.5708 28.7875 39.1819 27.8485 38.4896 27.1562C37.7973 26.4639 36.8583 26.075 35.8792 26.075Z" fill="#645A84"/>
<path d="M4.10832 33.4583C6.14717 33.4583 7.79999 31.8055 7.79999 29.7666C7.79999 27.7278 6.14717 26.075 4.10832 26.075C2.06947 26.075 0.416656 27.7278 0.416656 29.7666C0.416656 31.8055 2.06947 33.4583 4.10832 33.4583Z" fill="#D7D7FF"/>
<path d="M4.10833 31.6625C5.12545 31.6625 5.95 30.8379 5.95 29.8208C5.95 28.8037 5.12545 27.9791 4.10833 27.9791C3.0912 27.9791 2.26666 28.8037 2.26666 29.8208C2.26666 30.8379 3.0912 31.6625 4.10833 31.6625Z" fill="#919BC0"/>
<path d="M32.4458 18.6917H8.07916V26.075H32.4458C33.4249 26.075 34.3639 25.686 35.0562 24.9937C35.7486 24.3014 36.1375 23.3624 36.1375 22.3833C36.1375 21.4042 35.7486 20.4652 35.0562 19.7729C34.3639 19.0806 33.4249 18.6917 32.4458 18.6917Z" fill="#645A84"/>
<path d="M8.07915 26.075C10.118 26.075 11.7708 24.4222 11.7708 22.3833C11.7708 20.3445 10.118 18.6917 8.07915 18.6917C6.0403 18.6917 4.38748 20.3445 4.38748 22.3833C4.38748 24.4222 6.0403 26.075 8.07915 26.075Z" fill="#D7D7FF"/>
<path d="M8.07915 24.275C9.09628 24.275 9.92082 23.4505 9.92082 22.4333C9.92082 21.4162 9.09628 20.5917 8.07915 20.5917C7.06203 20.5917 6.23749 21.4162 6.23749 22.4333C6.23749 23.4505 7.06203 24.275 8.07915 24.275Z" fill="#919BC0"/>
<path d="M32.475 18.6917H16.5875C16.44 18.6911 16.2938 18.7197 16.1573 18.7758C16.0208 18.8319 15.8968 18.9143 15.7923 19.0185C15.6877 19.1226 15.6048 19.2463 15.5482 19.3826C15.4916 19.5189 15.4625 19.6649 15.4625 19.8125V24.95C15.4625 25.0977 15.4916 25.244 15.5481 25.3805C15.6047 25.517 15.6875 25.641 15.792 25.7455C15.8965 25.85 16.0205 25.9328 16.157 25.9894C16.2935 26.0459 16.4398 26.075 16.5875 26.075H32.475C33.4541 26.075 34.3931 25.686 35.0854 24.9937C35.7777 24.3014 36.1667 23.3624 36.1667 22.3833C36.1667 21.4042 35.7777 20.4652 35.0854 19.7729C34.3931 19.0806 33.4541 18.6917 32.475 18.6917Z" fill="#B4B9DE"/>
<path d="M35.6042 20.4166C35.2731 19.8854 34.812 19.4474 34.2644 19.1441C33.7168 18.8408 33.1009 18.6822 32.475 18.6833H16.5875C16.4401 18.6827 16.2941 18.7114 16.1579 18.7675C16.0217 18.8236 15.8979 18.9062 15.7937 19.0104C15.6895 19.1145 15.607 19.2383 15.5508 19.3746C15.4947 19.5108 15.4661 19.6568 15.4667 19.8041V20.4166H35.6042Z" fill="#D7D7FF"/>
<path d="M15.4458 22.5292V24.9583C15.4453 25.1057 15.4739 25.2517 15.53 25.3879C15.5861 25.5242 15.6687 25.6479 15.7729 25.7521C15.8771 25.8563 16.0008 25.9388 16.1371 25.995C16.2733 26.0511 16.4193 26.0797 16.5666 26.0792H32.4541C33.4088 26.0798 34.3264 25.7103 35.0142 25.0482C35.7019 24.3861 36.106 23.4831 36.1416 22.5292H15.4458Z" fill="#A0A5DE"/>
<path d="M29.0333 18.6917H16.5875C16.44 18.6911 16.2938 18.7197 16.1573 18.7758C16.0208 18.8319 15.8968 18.9143 15.7923 19.0185C15.6877 19.1226 15.6048 19.2463 15.5482 19.3826C15.4916 19.5189 15.4625 19.6649 15.4625 19.8125V24.95C15.4625 25.0977 15.4916 25.244 15.5481 25.3805C15.6047 25.517 15.6875 25.641 15.792 25.7455C15.8965 25.85 16.0205 25.9328 16.157 25.9894C16.2935 26.0459 16.4398 26.075 16.5875 26.075H29.0333C30.0124 26.075 30.9514 25.686 31.6437 24.9937C32.3361 24.3014 32.725 23.3624 32.725 22.3833C32.725 21.4042 32.3361 20.4652 31.6437 19.7729C30.9514 19.0806 30.0124 18.6917 29.0333 18.6917Z" fill="#919BC0"/>
<path d="M15.4625 22.5V24.9417C15.4625 25.0894 15.4916 25.2357 15.5481 25.3722C15.6047 25.5087 15.6875 25.6327 15.792 25.7372C15.8965 25.8416 16.0205 25.9245 16.157 25.981C16.2935 26.0376 16.4398 26.0667 16.5875 26.0667H29.0333C29.99 26.0661 30.909 25.6937 31.5963 25.0282C32.2836 24.3627 32.6853 23.4562 32.7167 22.5H15.4625Z" fill="#787DA7"/>
<path d="M18.4833 18.6917H15.4625V26.075H18.4833C19.4624 26.075 20.4014 25.686 21.0937 24.9937C21.7861 24.3014 22.175 23.3624 22.175 22.3833C22.175 21.4042 21.7861 20.4652 21.0937 19.7729C20.4014 19.0806 19.4624 18.6917 18.4833 18.6917Z" fill="#B4B9DE"/>
<path d="M21.6208 20.4166C21.2904 19.8857 20.83 19.4479 20.2832 19.1445C19.7363 18.8412 19.1211 18.6825 18.4958 18.6833H15.475V20.4166H21.6208Z" fill="#D7D7FF"/>
<path d="M15.475 22.4708V26.0792H18.4916C19.4561 26.0794 20.3822 25.7018 21.0715 25.0273C21.7608 24.3527 22.1584 23.435 22.1791 22.4708H15.475Z" fill="#A0A5DE"/>
<path d="M15.4625 26.075C17.5013 26.075 19.1541 24.4222 19.1541 22.3833C19.1541 20.3445 17.5013 18.6917 15.4625 18.6917C13.4236 18.6917 11.7708 20.3445 11.7708 22.3833C11.7708 24.4222 13.4236 26.075 15.4625 26.075Z" fill="#D7D7FF"/>
<path d="M15.4625 24.275C16.4796 24.275 17.3042 23.4505 17.3042 22.4333C17.3042 21.4162 16.4796 20.5917 15.4625 20.5917C14.4454 20.5917 13.6208 21.4162 13.6208 22.4333C13.6208 23.4505 14.4454 24.275 15.4625 24.275Z" fill="#919BC0"/>
<path d="M29 11.3041H13.1125C12.8141 11.3041 12.528 11.4227 12.317 11.6336C12.106 11.8446 11.9875 12.1308 11.9875 12.4291V17.5666C11.9875 17.7144 12.0166 17.8607 12.0731 17.9972C12.1297 18.1336 12.2125 18.2577 12.317 18.3621C12.4215 18.4666 12.5455 18.5495 12.682 18.606C12.8185 18.6625 12.9648 18.6916 13.1125 18.6916H29C29.9582 18.6595 30.8663 18.2562 31.5328 17.567C32.1992 16.8778 32.5717 15.9566 32.5717 14.9979C32.5717 14.0392 32.1992 13.118 31.5328 12.4288C30.8663 11.7396 29.9582 11.3363 29 11.3041Z" fill="#B4B9DE"/>
<path d="M11.9875 15.1375V18.625C11.9875 18.7208 10.8041 18.6916 29 18.6916C29.955 18.6912 30.8727 18.3207 31.5603 17.658C32.2479 16.9952 32.6519 16.0918 32.6875 15.1375H11.9875Z" fill="#A0A5DE"/>
<path d="M25.5583 11.3041H13.1125C12.8141 11.3041 12.528 11.4227 12.317 11.6336C12.106 11.8446 11.9875 12.1308 11.9875 12.4291V17.5666C11.9875 17.7144 12.0166 17.8607 12.0731 17.9972C12.1297 18.1336 12.2125 18.2577 12.317 18.3621C12.4215 18.4666 12.5455 18.5495 12.682 18.606C12.8185 18.6625 12.9648 18.6916 13.1125 18.6916H25.5583C26.5165 18.6595 27.4247 18.2562 28.0911 17.567C28.7575 16.8778 29.1301 15.9566 29.1301 14.9979C29.1301 14.0392 28.7575 13.118 28.0911 12.4288C27.4247 11.7396 26.5165 11.3363 25.5583 11.3041Z" fill="#919BC0"/>
<path d="M12 15.125V17.5667C12 17.7144 12.0291 17.8607 12.0856 17.9972C12.1422 18.1337 12.225 18.2577 12.3295 18.3622C12.434 18.4666 12.558 18.5495 12.6945 18.606C12.831 18.6626 12.9773 18.6917 13.125 18.6917H25.5667C26.5238 18.6911 27.4432 18.3189 28.1312 17.6535C28.8191 16.9881 29.2218 16.0815 29.2542 15.125H12Z" fill="#787DA7"/>
<path d="M15 11.3041H11.9875V18.6916H15C15.4955 18.7083 15.9893 18.6251 16.452 18.4469C16.9146 18.2688 17.3368 17.9994 17.6932 17.6548C18.0496 17.3101 18.333 16.8973 18.5266 16.4408C18.7201 15.9844 18.8199 15.4937 18.8199 14.9979C18.8199 14.5021 18.7201 14.0114 18.5266 13.5549C18.333 13.0985 18.0496 12.6857 17.6932 12.341C17.3368 11.9964 16.9146 11.727 16.452 11.5489C15.9893 11.3707 15.4955 11.2875 15 11.3041Z" fill="#B4B9DE"/>
<path d="M11.9875 15.0792V18.6917H15C15.9652 18.6908 16.8918 18.3124 17.5816 17.6373C18.2715 16.9623 18.6699 16.0441 18.6917 15.0792H11.9875Z" fill="#A0A5DE"/>
<path d="M11.9875 18.6875C14.0264 18.6875 15.6792 17.0347 15.6792 14.9958C15.6792 12.957 14.0264 11.3041 11.9875 11.3041C9.94865 11.3041 8.29584 12.957 8.29584 14.9958C8.29584 17.0347 9.94865 18.6875 11.9875 18.6875Z" fill="#D7D7FF"/>
<path d="M11.9875 16.8916C13.0046 16.8916 13.8291 16.0671 13.8291 15.05C13.8291 14.0329 13.0046 13.2083 11.9875 13.2083C10.9704 13.2083 10.1458 14.0329 10.1458 15.05C10.1458 16.0671 10.9704 16.8916 11.9875 16.8916Z" fill="#919BC0"/>
<path d="M11.4958 33.4583C13.5347 33.4583 15.1875 31.8055 15.1875 29.7666C15.1875 27.7278 13.5347 26.075 11.4958 26.075C9.45698 26.075 7.80417 27.7278 7.80417 29.7666C7.80417 31.8055 9.45698 33.4583 11.4958 33.4583Z" fill="#D7D7FF"/>
<path d="M11.4958 31.6625C12.5129 31.6625 13.3375 30.8379 13.3375 29.8208C13.3375 28.8037 12.5129 27.9791 11.4958 27.9791C10.4787 27.9791 9.65414 28.8037 9.65414 29.8208C9.65414 30.8379 10.4787 31.6625 11.4958 31.6625Z" fill="#919BC0"/>
<path d="M35.8917 26.075H20C19.7016 26.075 19.4155 26.1935 19.2045 26.4045C18.9935 26.6154 18.875 26.9016 18.875 27.1999V32.3375C18.875 32.485 18.9041 32.6311 18.9607 32.7673C19.0173 32.9036 19.1002 33.0273 19.2048 33.1315C19.3093 33.2356 19.4333 33.3181 19.5698 33.3742C19.7063 33.4302 19.8525 33.4588 20 33.4583H35.8917C36.8708 33.4583 37.8097 33.0693 38.5021 32.377C39.1944 31.6847 39.5833 30.7457 39.5833 29.7666C39.5833 28.7875 39.1944 27.8485 38.5021 27.1562C37.8097 26.4639 36.8708 26.075 35.8917 26.075Z" fill="#B4B9DE"/>
<path d="M39.0208 27.8125C38.6894 27.2812 38.2283 26.8431 37.6809 26.5391C37.1335 26.2352 36.5178 26.0754 35.8917 26.075H20C19.7016 26.075 19.4155 26.1935 19.2045 26.4045C18.9935 26.6154 18.875 26.9016 18.875 27.1999V27.8125H39.0208Z" fill="#D7D7FF"/>
<path d="M18.8625 29.9125V32.3416C18.8625 32.4894 18.8916 32.6357 18.9481 32.7722C19.0047 32.9087 19.0875 33.0327 19.192 33.1371C19.2965 33.2416 19.4205 33.3245 19.557 33.381C19.6935 33.4375 19.8398 33.4666 19.9875 33.4666H35.875C36.5565 33.4679 37.225 33.2801 37.8062 32.9241C38.3873 32.568 38.8583 32.0577 39.1667 31.45C39.2476 31.288 39.2858 31.1081 39.2777 30.9272C39.2695 30.7463 39.2153 30.5705 39.1201 30.4165C39.0249 30.2625 38.892 30.1353 38.7339 30.0471C38.5758 29.9589 38.3977 29.9125 38.2167 29.9125H18.8625Z" fill="#A0A5DE"/>
<path d="M32.4458 26.075H20C19.7016 26.075 19.4155 26.1935 19.2045 26.4045C18.9935 26.6154 18.875 26.9016 18.875 27.1999V32.3375C18.875 32.485 18.9041 32.6311 18.9607 32.7673C19.0173 32.9036 19.1002 33.0273 19.2048 33.1315C19.3093 33.2356 19.4333 33.3181 19.5698 33.3742C19.7063 33.4302 19.8525 33.4588 20 33.4583H32.4458C33.4249 33.4583 34.3639 33.0693 35.0562 32.377C35.7486 31.6847 36.1375 30.7457 36.1375 29.7666C36.1375 28.7875 35.7486 27.8485 35.0562 27.1562C34.3639 26.4639 33.4249 26.075 32.4458 26.075Z" fill="#919BC0"/>
<path d="M18.8792 29.8958V32.3375C18.8792 32.6347 18.9972 32.9198 19.2074 33.13C19.4176 33.3402 19.7027 33.4583 20 33.4583H32.4458C33.1224 33.4587 33.7861 33.2732 34.3645 32.9219C34.9428 32.5707 35.4134 32.0673 35.725 31.4666C35.8073 31.3008 35.8459 31.1167 35.8371 30.9317C35.8283 30.7468 35.7724 30.5671 35.6748 30.4098C35.5771 30.2525 35.4409 30.1227 35.2791 30.0328C35.1173 29.9428 34.9351 29.8957 34.75 29.8958H18.8792Z" fill="#787DA7"/>
<path d="M21.8958 26.075H18.8792V33.4583H21.8958C22.8749 33.4583 23.8139 33.0693 24.5062 32.377C25.1985 31.6847 25.5875 30.7457 25.5875 29.7666C25.5875 28.7875 25.1985 27.8485 24.5062 27.1562C23.8139 26.4639 22.8749 26.075 21.8958 26.075Z" fill="#B4B9DE"/>
<path d="M25.025 27.8125C24.6935 27.2812 24.2324 26.8431 23.6851 26.5391C23.1377 26.2352 22.5219 26.0754 21.8958 26.075H18.8792V27.8125H25.025Z" fill="#D7D7FF"/>
<path d="M18.9167 29.8542V33.4667H21.9333C22.7769 33.4655 23.5946 33.1754 24.2504 32.6447C24.9062 32.1141 25.3604 31.3748 25.5375 30.55C25.5562 30.4647 25.5555 30.3763 25.5355 30.2914C25.5155 30.2064 25.4767 30.127 25.4219 30.059C25.3671 29.991 25.2978 29.9362 25.219 29.8986C25.1402 29.861 25.054 29.8415 24.9667 29.8417L18.9167 29.8542Z" fill="#A0A5DE"/>
<path d="M18.8792 33.4583C20.918 33.4583 22.5708 31.8055 22.5708 29.7666C22.5708 27.7278 20.918 26.075 18.8792 26.075C16.8403 26.075 15.1875 27.7278 15.1875 29.7666C15.1875 31.8055 16.8403 33.4583 18.8792 33.4583Z" fill="#D7D7FF"/>
<path d="M18.8791 31.6625C19.8963 31.6625 20.7208 30.8379 20.7208 29.8208C20.7208 28.8037 19.8963 27.9791 18.8791 27.9791C17.862 27.9791 17.0375 28.8037 17.0375 29.8208C17.0375 30.8379 17.862 31.6625 18.8791 31.6625Z" fill="#919BC0"/>
<path d="M31.8792 27.1875H28.125C27.7591 27.1875 27.4625 27.4841 27.4625 27.85V27.8542C27.4625 28.2201 27.7591 28.5167 28.125 28.5167H31.8792C32.245 28.5167 32.5417 28.2201 32.5417 27.8542V27.85C32.5417 27.4841 32.245 27.1875 31.8792 27.1875Z" fill="#B4BEE3"/>
<path d="M28.1 19.7416H24.3458C23.9799 19.7416 23.6833 20.0382 23.6833 20.4041V20.4083C23.6833 20.7742 23.9799 21.0708 24.3458 21.0708H28.1C28.4659 21.0708 28.7625 20.7742 28.7625 20.4083V20.4041C28.7625 20.0382 28.4659 19.7416 28.1 19.7416Z" fill="#B4BEE3"/>
<path d="M24.9 12.5458H21.1458C20.7799 12.5458 20.4833 12.8424 20.4833 13.2083V13.2125C20.4833 13.5784 20.7799 13.875 21.1458 13.875H24.9C25.2659 13.875 25.5625 13.5784 25.5625 13.2125V13.2083C25.5625 12.8424 25.2659 12.5458 24.9 12.5458Z" fill="#B4BEE3"/>
</svg>
