<svg width="140" height="146" viewBox="0 0 140 146" fill="none" xmlns="http://www.w3.org/2000/svg">
<g clip-path="url(#clip0_1477_9102)">
<rect y="6" width="140" height="140" rx="70" fill="#E4E9FF"/>
<rect y="98.3403" width="140" height="64.7872" fill="#293A92" fill-opacity="0.3"/>
<path fill-rule="evenodd" clip-rule="evenodd" d="M48.9136 46.4139C48.8479 46.6601 48.9003 46.9228 49.0552 47.1249C49.2101 47.3271 49.4504 47.4454 49.7053 47.4454H83.1597C86.2429 47.4454 88.7421 49.945 88.7421 53.0281V111.723C88.7421 112.048 88.934 112.342 89.2313 112.473C89.5286 112.604 89.875 112.547 90.1145 112.327C91.0949 111.43 91.8397 110.252 92.2094 108.873C95.8624 95.2397 104.573 62.7298 108.226 49.0967C109.258 45.2444 106.972 41.285 103.12 40.2527C92.6459 37.446 71.5346 31.7894 61.0602 28.9827C57.2082 27.9504 53.2485 30.2368 52.2162 34.0888L48.9136 46.4139Z" fill="#3B478F"/>
<path fill-rule="evenodd" clip-rule="evenodd" d="M83.1598 47.4453C86.2429 47.4453 88.7421 49.9449 88.7421 53.028V111.723C88.7421 112.047 88.934 112.342 89.2313 112.473C89.5286 112.604 89.8751 112.546 90.1146 112.327C91.095 111.43 91.8398 110.252 92.2095 108.873L95.2965 97.351V54.6663C95.2965 50.6783 92.0636 47.4453 88.0755 47.4453H83.1598Z" fill="#343D70"/>
<path fill-rule="evenodd" clip-rule="evenodd" d="M32.3948 103.809C32.3948 104.027 32.4814 104.235 32.6351 104.389L50.1398 121.894C50.2936 122.048 50.502 122.134 50.7191 122.134H83.1598C87.1478 122.134 90.3808 118.901 90.3808 114.913C90.3808 100.799 90.3808 67.1421 90.3808 53.028C90.3808 49.0396 87.1478 45.8066 83.1598 45.8066C72.3161 45.8066 50.4596 45.8066 39.6162 45.8066C35.6278 45.8066 32.3948 49.0396 32.3948 53.028V103.809Z" fill="#D9DEFB"/>
<path fill-rule="evenodd" clip-rule="evenodd" d="M64.5374 57.5827C62.4575 57.1749 60.3181 57.1749 58.2386 57.5827L57.1807 60.2109C55.205 60.8298 53.3897 61.8779 51.8654 63.2795L49.0607 62.8815C47.6674 64.4785 46.5981 66.3311 45.9115 68.3364L47.6584 70.5661C47.2069 72.5871 47.2069 74.6832 47.6584 76.7041L45.9115 78.9339C46.5981 80.9391 47.6674 82.7918 49.0607 84.3888L51.8654 83.9908C53.3897 85.3924 55.205 86.4404 57.1807 87.0598L58.2386 89.6875C60.3181 90.0957 62.4575 90.0957 64.5374 89.6875L65.5949 87.0598C67.571 86.4404 69.3859 85.3924 70.9102 83.9908L73.7149 84.3888C75.1082 82.7918 76.1779 80.9391 76.8645 78.9339L75.1172 76.7041C75.5691 74.6832 75.5691 72.5871 75.1172 70.5661L76.8645 68.3364C76.1779 66.3311 75.1082 64.4785 73.7149 62.8815L70.9102 63.2795C69.3859 61.8779 67.571 60.8298 65.5949 60.2109L64.5374 57.5827ZM61.3878 66.2737C65.4505 66.2737 68.7492 69.5724 68.7492 73.6351C68.7492 77.6979 65.4505 80.9965 61.3878 80.9965C57.325 80.9965 54.0268 77.6979 54.0268 73.6351C54.0268 69.5724 57.325 66.2737 61.3878 66.2737Z" fill="#3B478F"/>
<path fill-rule="evenodd" clip-rule="evenodd" d="M49.8999 110.212V110.654L50.7191 111.483H76.5448C78.1272 111.483 79.4124 110.198 79.4124 108.616C79.4124 107.033 78.1272 105.748 76.5448 105.748H49.5814C49.2766 105.748 48.997 105.918 48.8554 106.188C48.7142 106.458 48.7347 106.784 48.9081 107.034C49.5338 107.936 49.8999 109.031 49.8999 110.212Z" fill="#9CA8EE"/>
<path fill-rule="evenodd" clip-rule="evenodd" d="M46.2308 102.084H76.5448C78.1272 102.084 79.4124 100.799 79.4124 99.2164C79.4124 97.6339 78.1272 96.3491 76.5448 96.3491H46.2312C44.6484 96.3491 43.3636 97.6339 43.3636 99.2164C43.3636 100.799 44.6484 102.084 46.2308 102.084Z" fill="#9CA8EE"/>
<path fill-rule="evenodd" clip-rule="evenodd" d="M32.5458 104.283C32.5722 104.321 32.6021 104.356 32.6351 104.389L50.1398 121.894C50.2936 122.047 50.502 122.134 50.7191 122.134H55.2262V113.383C55.2262 108.357 51.1521 104.283 46.1266 104.283H32.5458Z" fill="#BDC5F7"/>
<path fill-rule="evenodd" clip-rule="evenodd" d="M51.0797 105.748H49.5814C49.2766 105.748 48.997 105.918 48.8554 106.188C48.7142 106.458 48.7347 106.784 48.9081 107.034C49.5338 107.936 49.8999 109.031 49.8999 110.212V110.654L50.7191 111.483H55.0276C54.5187 109.088 53.0672 107.041 51.0797 105.748Z" fill="#7C8BE4"/>
<path fill-rule="evenodd" clip-rule="evenodd" d="M32.3948 102.99V103.809C32.3948 104.027 32.4814 104.235 32.6351 104.389L50.1398 121.894C50.2936 122.048 50.502 122.134 50.7191 122.134H51.5387V110.211C51.5387 106.223 48.3057 102.99 44.3173 102.99H32.3948Z" fill="#3B478F"/>
</g>
<path d="M120 36C128.837 36 136 28.8366 136 20C136 11.1634 128.837 4 120 4C111.163 4 104 11.1634 104 20C104 28.8366 111.163 36 120 36Z" fill="#D9DEFB"/>
<path fill-rule="evenodd" clip-rule="evenodd" d="M117.651 9.89118C115.682 11.8599 111.957 15.585 109.988 17.5537C109.346 18.1957 108.985 19.0668 108.985 19.9748C108.985 20.8829 109.346 21.754 109.988 22.396C111.957 24.3647 115.682 28.0898 117.651 30.0585C118.293 30.7006 119.164 31.0614 120.072 31.0614C120.98 31.0614 121.851 30.7006 122.493 30.0585C124.462 28.0898 128.187 24.3647 130.155 22.396C130.798 21.754 131.158 20.8829 131.158 19.9748C131.158 19.0668 130.798 18.1957 130.155 17.5537C128.187 15.585 124.462 11.8599 122.493 9.89118C121.851 9.24893 120.98 8.88818 120.072 8.88818C119.164 8.88818 118.293 9.24893 117.651 9.89118Z" fill="#EB6326"/>
<path fill-rule="evenodd" clip-rule="evenodd" d="M119.463 11.7035L111.8 19.3659C111.639 19.5274 111.548 19.7466 111.548 19.9749C111.548 20.2034 111.639 20.4224 111.8 20.5841C113.769 22.5526 117.494 26.2778 119.463 28.2464C119.624 28.408 119.843 28.4987 120.072 28.4987C120.3 28.4987 120.519 28.408 120.681 28.2464C122.65 26.2778 126.375 22.5526 128.343 20.5841C128.505 20.4224 128.596 20.2034 128.596 19.9749C128.596 19.7466 128.505 19.5274 128.343 19.3659C126.375 17.3972 122.65 13.6721 120.681 11.7035C120.519 11.542 120.3 11.4512 120.072 11.4512C119.843 11.4512 119.624 11.542 119.463 11.7035Z" fill="#FFC9B0"/>
<path fill-rule="evenodd" clip-rule="evenodd" d="M120.072 22.6891C119.473 22.6891 118.987 23.175 118.987 23.7735C118.987 24.3721 119.473 24.858 120.072 24.858C120.67 24.858 121.156 24.3721 121.156 23.7735C121.156 23.175 120.67 22.6891 120.072 22.6891ZM118.737 16.0419C118.737 16.0471 118.737 16.0523 118.738 16.0576L118.988 21.0113C118.993 21.6053 119.477 22.0861 120.072 22.0861C120.668 22.0861 121.152 21.6043 121.156 21.0094C121.155 21.0113 121.406 16.0576 121.406 16.0576C121.407 16.0523 121.407 16.0471 121.407 16.0419C121.407 15.3051 120.809 14.707 120.072 14.707C119.335 14.707 118.737 15.3051 118.737 16.0419Z" fill="#EB6326"/>
<defs>
<clipPath id="clip0_1477_9102">
<rect y="6" width="140" height="140" rx="70" fill="white"/>
</clipPath>
</defs>
</svg>
