<svg width="140" height="146" viewBox="0 0 140 146" fill="none" xmlns="http://www.w3.org/2000/svg">
<g clip-path="url(#clip0_5112_14419)">
<g clip-path="url(#clip1_5112_14419)">
<rect y="6" width="140" height="140" rx="70" fill="#E4E9FF"/>
<rect y="98.3405" width="140" height="64.7872" fill="#293A92" fill-opacity="0.3"/>
<path fill-rule="evenodd" clip-rule="evenodd" d="M41.9081 47.1201C41.8428 47.3645 41.8948 47.6253 42.0486 47.826C42.2025 48.0267 42.441 48.1443 42.6941 48.1443H75.9113C78.9726 48.1443 81.454 50.6261 81.454 53.6874V111.966C81.454 112.288 81.6446 112.58 81.9398 112.71C82.235 112.84 82.579 112.784 82.8168 112.566C83.7902 111.675 84.5297 110.505 84.8968 109.136C88.5238 95.5996 97.1727 63.3203 100.8 49.7839C101.825 45.9588 99.555 42.0276 95.73 41.0026C85.3302 38.2158 64.3686 32.5993 53.9685 29.8125C50.1438 28.7875 46.2122 31.0577 45.1872 34.8824L41.9081 47.1201Z" fill="#0D1C65"/>
<path fill-rule="evenodd" clip-rule="evenodd" d="M79.834 49.7714C80.8351 50.7741 81.454 52.1583 81.454 53.6874V111.966C81.454 112.288 81.6446 112.58 81.9398 112.71C82.235 112.84 82.579 112.784 82.8168 112.566C83.7902 111.675 84.5298 110.505 84.8968 109.136L87.962 97.696V56.9412C87.962 52.9814 84.752 49.7714 80.7922 49.7714H79.834Z" fill="#293A92"/>
<path fill-rule="evenodd" clip-rule="evenodd" d="M25.5063 104.109C25.5063 104.325 25.5923 104.532 25.7449 104.684L43.1255 122.065C43.2782 122.218 43.4851 122.303 43.7007 122.303H75.9113C79.871 122.303 83.0811 119.093 83.0811 115.133C83.0811 101.119 83.0811 67.7013 83.0811 53.6874C83.0811 49.7273 79.871 46.5172 75.9113 46.5172C65.1445 46.5172 43.4429 46.5172 32.6765 46.5172C28.7164 46.5172 25.5063 49.7273 25.5063 53.6874V104.109Z" fill="white"/>
<path fill-rule="evenodd" clip-rule="evenodd" d="M42.2848 63.5057H66.3026C68.0675 63.5057 69.4997 62.0731 69.4997 60.3086C69.4997 58.544 68.0675 57.1114 66.3026 57.1114H42.2848C40.5203 57.1114 39.0876 58.544 39.0876 60.3086C39.0876 62.0731 40.5203 63.5057 42.2848 63.5057Z" fill="#0D1C65"/>
<path fill-rule="evenodd" clip-rule="evenodd" d="M35.6536 75.6888H72.9344C73.383 75.6888 73.7477 75.3245 73.7477 74.8754C73.7477 74.4264 73.383 74.0621 72.9344 74.0621H35.6536C35.2045 74.0621 34.8402 74.4264 34.8402 74.8754C34.8402 75.3245 35.2045 75.6888 35.6536 75.6888Z" fill="#0D1C65"/>
<path fill-rule="evenodd" clip-rule="evenodd" d="M35.6536 86.283H72.9344C73.383 86.283 73.7477 85.9187 73.7477 85.4697C73.7477 85.0206 73.383 84.6563 72.9344 84.6563H35.6536C35.2045 84.6563 34.8402 85.0206 34.8402 85.4697C34.8402 85.9187 35.2045 86.283 35.6536 86.283Z" fill="#0D1C65"/>
<path fill-rule="evenodd" clip-rule="evenodd" d="M35.6536 96.8772H72.9344C73.383 96.8772 73.7477 96.5129 73.7477 96.0639C73.7477 95.6148 73.383 95.2501 72.9344 95.2501H35.6536C35.2045 95.2501 34.8402 95.6148 34.8402 96.0639C34.8402 96.5129 35.2045 96.8772 35.6536 96.8772Z" fill="#0D1C65"/>
<path fill-rule="evenodd" clip-rule="evenodd" d="M25.5063 103.295V104.109C25.5063 104.325 25.5923 104.532 25.7449 104.684L43.1255 122.065C43.2782 122.217 43.4851 122.303 43.7007 122.303H44.5144V110.465C44.5144 106.505 41.3043 103.295 37.3442 103.295H25.5063Z" fill="#0D1C65"/>
<path fill-rule="evenodd" clip-rule="evenodd" d="M101.975 63.5202L89.8319 108.84C89.5234 109.99 89.6 111.602 89.8924 113.303C90.3044 115.699 91.124 118.285 91.6804 119.883C91.9014 120.56 92.3981 121.025 92.9955 121.186C93.5933 121.346 94.2563 121.191 94.7866 120.716C96.0669 119.61 98.0696 117.78 99.6245 115.911C100.728 114.584 101.6 113.226 101.908 112.076L114.052 66.756C115.143 62.6834 113.252 58.7139 109.97 57.8346C106.689 56.9552 103.066 59.4476 101.975 63.5202Z" fill="#293A92"/>
<path fill-rule="evenodd" clip-rule="evenodd" d="M89.6964 111.851C89.7405 112.321 89.8073 112.808 89.8924 113.303C90.3044 115.699 91.124 118.285 91.6804 119.883C91.9014 120.56 92.3981 121.025 92.9955 121.186C93.5933 121.346 94.2563 121.191 94.7866 120.716C96.0669 119.61 98.0696 117.78 99.6245 115.911C99.9455 115.525 100.247 115.136 100.52 114.751L89.6964 111.851Z" fill="#3A4E66"/>
<path fill-rule="evenodd" clip-rule="evenodd" d="M90.9084 104.822L89.8319 108.84C89.5234 109.99 89.6 111.602 89.8924 113.303C89.9869 113.853 90.1033 114.414 90.2325 114.97L98.4964 117.184C98.8869 116.767 99.2676 116.34 99.6245 115.911C100.728 114.584 101.6 113.226 101.908 112.076L102.985 108.058L90.9084 104.822Z" fill="#FFEFE0"/>
<path fill-rule="evenodd" clip-rule="evenodd" d="M101.875 100.051L104.967 88.5122C105.083 88.0788 104.825 87.6321 104.391 87.5161C103.958 87.3997 103.511 87.6575 103.395 88.0913L100.304 99.6296C100.187 100.063 100.445 100.51 100.879 100.626C101.313 100.742 101.759 100.484 101.875 100.051Z" fill="#FFEFE0"/>
<path fill-rule="evenodd" clip-rule="evenodd" d="M112.69 71.8368L112.186 73.7208L100.109 70.485L100.614 68.601L112.69 71.8368Z" fill="#FFEFE0"/>
<path fill-rule="evenodd" clip-rule="evenodd" d="M97.4449 98.8635L100.537 87.3252C100.653 86.8918 100.395 86.4451 99.9615 86.3291C99.5276 86.2127 99.0813 86.4704 98.965 86.9042L95.8732 98.4426C95.7573 98.876 96.015 99.3227 96.4484 99.4387C96.8822 99.5551 97.3285 99.2974 97.4449 98.8635Z" fill="#FFEFE0"/>
<path fill-rule="evenodd" clip-rule="evenodd" d="M100.605 68.6326L112.682 71.8684L114.052 66.756C115.143 62.6834 113.252 58.7139 109.97 57.8346C106.689 56.9552 103.066 59.4476 101.976 63.5202L100.605 68.6326Z" fill="#3A4E66"/>
</g>
<path d="M120 36C128.837 36 136 28.8366 136 20C136 11.1634 128.837 4 120 4C111.163 4 104 11.1634 104 20C104 28.8366 111.163 36 120 36Z" fill="#D9DEFB"/>
<path fill-rule="evenodd" clip-rule="evenodd" d="M117.651 9.89136C115.682 11.8601 111.957 15.5851 109.988 17.5538C109.346 18.1959 108.985 19.0669 108.985 19.975C108.985 20.8831 109.346 21.7541 109.988 22.3962C111.957 24.3649 115.682 28.09 117.651 30.0587C118.293 30.7008 119.164 31.0615 120.072 31.0615C120.98 31.0615 121.851 30.7008 122.493 30.0587C124.462 28.09 128.187 24.3649 130.156 22.3962C130.798 21.7541 131.159 20.8831 131.159 19.975C131.159 19.0669 130.798 18.1959 130.156 17.5538C128.187 15.5851 124.462 11.8601 122.493 9.89136C121.851 9.24912 120.98 8.88837 120.072 8.88837C119.164 8.88837 118.293 9.24912 117.651 9.89136Z" fill="#EB6326"/>
<path fill-rule="evenodd" clip-rule="evenodd" d="M119.463 11.7035L111.801 19.366C111.639 19.5275 111.548 19.7467 111.548 19.975C111.548 20.2034 111.639 20.4225 111.801 20.5841C113.769 22.5527 117.494 26.2779 119.463 28.2464C119.624 28.4081 119.843 28.4987 120.072 28.4987C120.3 28.4987 120.519 28.4081 120.681 28.2464C122.65 26.2779 126.375 22.5527 128.343 20.5841C128.505 20.4225 128.596 20.2034 128.596 19.975C128.596 19.7467 128.505 19.5275 128.343 19.366C126.375 17.3973 122.65 13.6722 120.681 11.7035C120.519 11.542 120.3 11.4512 120.072 11.4512C119.843 11.4512 119.624 11.542 119.463 11.7035Z" fill="#FFC9B0"/>
<path fill-rule="evenodd" clip-rule="evenodd" d="M120.072 22.6891C119.473 22.6891 118.987 23.1751 118.987 23.7736C118.987 24.3721 119.473 24.8581 120.072 24.8581C120.67 24.8581 121.156 24.3721 121.156 23.7736C121.156 23.1751 120.67 22.6891 120.072 22.6891ZM118.737 16.0419C118.737 16.0472 118.737 16.0524 118.738 16.0577L118.988 21.0114C118.993 21.6054 119.477 22.0861 120.072 22.0861C120.668 22.0861 121.152 21.6043 121.156 21.0094C121.155 21.0114 121.406 16.0577 121.406 16.0577C121.407 16.0524 121.407 16.0472 121.407 16.0419C121.407 15.3051 120.809 14.7071 120.072 14.7071C119.335 14.7071 118.737 15.3051 118.737 16.0419Z" fill="#EB6326"/>
<mask id="mask0_5112_14419" style="mask-type:luminance" maskUnits="userSpaceOnUse" x="53" y="86" width="47" height="47">
<path d="M74.1875 125.958C84.5545 125.958 92.9583 117.555 92.9583 107.188C92.9583 96.8205 84.5545 88.4167 74.1875 88.4167C63.8204 88.4167 55.4166 96.8205 55.4166 107.188C55.4166 117.555 63.8204 125.958 74.1875 125.958Z" fill="#555555" stroke="white" stroke-width="4" stroke-linejoin="round"/>
<path d="M80.4337 99.8371C79.6143 99.0156 78.6407 98.3642 77.5687 97.9202C76.4968 97.4762 75.3477 97.2485 74.1874 97.25C73.0272 97.2485 71.8781 97.4762 70.8061 97.9202C69.7342 98.3642 68.7605 99.0156 67.9412 99.8371M87.6826 120.683L97.0514 130.051" stroke="white" stroke-width="4" stroke-linecap="round" stroke-linejoin="round"/>
</mask>
<g mask="url(#mask0_5112_14419)">
<path d="M51 84H104V137H51V84Z" fill="#0D1C65"/>
</g>
</g>
<defs>
<clipPath id="clip0_5112_14419">
<rect width="140" height="146" fill="white"/>
</clipPath>
<clipPath id="clip1_5112_14419">
<rect y="6" width="140" height="140" rx="70" fill="white"/>
</clipPath>
</defs>
</svg>
