<svg width="140" height="146" viewBox="0 0 140 146" fill="none" xmlns="http://www.w3.org/2000/svg">
<g clip-path="url(#clip0_1472_9101)">
<rect y="6" width="140" height="140" rx="70" fill="#E4E9FF"/>
<rect y="98.3403" width="140" height="64.7872" fill="#293A92" fill-opacity="0.3"/>
<path fill-rule="evenodd" clip-rule="evenodd" d="M41.9081 47.1206C41.8429 47.365 41.8948 47.6258 42.0487 47.8265C42.2025 48.0272 42.4411 48.1448 42.6941 48.1448H75.9113C78.9726 48.1448 81.454 50.6266 81.454 53.6879V111.966C81.454 112.289 81.6446 112.581 81.9398 112.711C82.235 112.841 82.579 112.784 82.8168 112.566C83.7902 111.676 84.5298 110.506 84.8968 109.136C88.5239 95.6001 97.1728 63.3207 100.8 49.7843C101.825 45.9593 99.555 42.0281 95.73 41.0031C85.3302 38.2163 64.3687 32.5998 53.9685 29.813C50.1439 28.788 46.2122 31.0582 45.1872 34.8829L41.9081 47.1206Z" fill="#0D1C65"/>
<path fill-rule="evenodd" clip-rule="evenodd" d="M79.834 49.7715C80.8351 50.7742 81.454 52.1584 81.454 53.6875V111.966C81.454 112.288 81.6446 112.58 81.9398 112.71C82.235 112.84 82.579 112.784 82.8168 112.566C83.7902 111.675 84.5298 110.505 84.8968 109.136L87.962 97.6961V56.9413C87.962 52.9815 84.752 49.7715 80.7922 49.7715H79.834Z" fill="#293A92"/>
<path fill-rule="evenodd" clip-rule="evenodd" d="M25.5064 104.109C25.5064 104.325 25.5923 104.532 25.745 104.685L43.1256 122.065C43.2782 122.218 43.4852 122.303 43.7007 122.303H75.9113C79.8711 122.303 83.0811 119.093 83.0811 115.134C83.0811 101.12 83.0811 67.7017 83.0811 53.6878C83.0811 49.7276 79.8711 46.5176 75.9113 46.5176C65.1445 46.5176 43.443 46.5176 32.6766 46.5176C28.7165 46.5176 25.5064 49.7276 25.5064 53.6878V104.109Z" fill="white"/>
<path fill-rule="evenodd" clip-rule="evenodd" d="M42.2849 63.5061H66.3026C68.0676 63.5061 69.4998 62.0735 69.4998 60.309C69.4998 58.5444 68.0676 57.1118 66.3026 57.1118H42.2849C40.5203 57.1118 39.0877 58.5444 39.0877 60.309C39.0877 62.0735 40.5203 63.5061 42.2849 63.5061Z" fill="#0D1C65"/>
<path fill-rule="evenodd" clip-rule="evenodd" d="M35.6535 75.6892H72.9344C73.383 75.6892 73.7477 75.3249 73.7477 74.8758C73.7477 74.4268 73.383 74.0625 72.9344 74.0625H35.6535C35.2045 74.0625 34.8402 74.4268 34.8402 74.8758C34.8402 75.3249 35.2045 75.6892 35.6535 75.6892Z" fill="#0D1C65"/>
<path fill-rule="evenodd" clip-rule="evenodd" d="M35.6535 86.2834H72.9344C73.383 86.2834 73.7477 85.9191 73.7477 85.4701C73.7477 85.021 73.383 84.6567 72.9344 84.6567H35.6535C35.2045 84.6567 34.8402 85.021 34.8402 85.4701C34.8402 85.9191 35.2045 86.2834 35.6535 86.2834Z" fill="#0D1C65"/>
<path fill-rule="evenodd" clip-rule="evenodd" d="M35.6535 96.8776H72.9344C73.383 96.8776 73.7477 96.5133 73.7477 96.0642C73.7477 95.6152 73.383 95.2505 72.9344 95.2505H35.6535C35.2045 95.2505 34.8402 95.6152 34.8402 96.0642C34.8402 96.5133 35.2045 96.8776 35.6535 96.8776Z" fill="#0D1C65"/>
<path fill-rule="evenodd" clip-rule="evenodd" d="M25.5064 103.295V104.109C25.5064 104.325 25.5923 104.532 25.745 104.684L43.1256 122.065C43.2782 122.218 43.4852 122.303 43.7007 122.303H44.5145V110.465C44.5145 106.505 41.3044 103.295 37.3443 103.295H25.5064Z" fill="#0D1C65"/>
<path fill-rule="evenodd" clip-rule="evenodd" d="M101.976 63.5205L89.832 108.841C89.5235 109.991 89.6 111.603 89.8925 113.303C90.3044 115.7 91.124 118.285 91.6804 119.883C91.9014 120.56 92.3981 121.026 92.9955 121.186C93.5934 121.347 94.2564 121.192 94.7866 120.716C96.067 119.61 98.0697 117.781 99.6245 115.911C100.728 114.584 101.6 113.226 101.908 112.077L114.052 66.7563C115.143 62.6837 113.252 58.7142 109.97 57.8349C106.689 56.9555 103.067 59.4479 101.976 63.5205Z" fill="#293A92"/>
<path fill-rule="evenodd" clip-rule="evenodd" d="M89.6965 111.851C89.7406 112.322 89.8074 112.809 89.8925 113.303C90.3044 115.7 91.124 118.285 91.6805 119.883C91.9015 120.56 92.3981 121.026 92.9955 121.186C93.5934 121.347 94.2564 121.191 94.7866 120.716C96.067 119.61 98.0697 117.78 99.6246 115.911C99.9455 115.525 100.247 115.136 100.52 114.751L89.6965 111.851Z" fill="#3A4E66"/>
<path fill-rule="evenodd" clip-rule="evenodd" d="M90.9085 104.822L89.832 108.841C89.5235 109.991 89.6 111.602 89.8925 113.303C89.987 113.853 90.1033 114.414 90.2326 114.97L98.4965 117.184C98.8869 116.767 99.2677 116.34 99.6245 115.911C100.728 114.584 101.6 113.226 101.908 112.076L102.985 108.058L90.9085 104.822Z" fill="#FFEFE0"/>
<path fill-rule="evenodd" clip-rule="evenodd" d="M101.875 100.051L104.967 88.5123C105.083 88.0789 104.825 87.6322 104.391 87.5162C103.958 87.3999 103.511 87.6576 103.395 88.0914L100.304 99.6298C100.187 100.063 100.445 100.51 100.879 100.626C101.313 100.742 101.759 100.484 101.875 100.051Z" fill="#FFEFE0"/>
<path fill-rule="evenodd" clip-rule="evenodd" d="M112.69 71.8369L112.186 73.7209L100.109 70.4851L100.614 68.6011L112.69 71.8369Z" fill="#FFEFE0"/>
<path fill-rule="evenodd" clip-rule="evenodd" d="M97.4449 98.8637L100.537 87.3253C100.653 86.8919 100.395 86.4452 99.9615 86.3292C99.5277 86.2129 99.0814 86.4706 98.965 86.9044L95.8733 98.4427C95.7573 98.8762 96.015 99.3229 96.4485 99.4388C96.8823 99.5552 97.3286 99.2975 97.4449 98.8637Z" fill="#FFEFE0"/>
<path fill-rule="evenodd" clip-rule="evenodd" d="M100.605 68.6329L112.682 71.8687L114.052 66.7563C115.143 62.6837 113.252 58.7142 109.97 57.8349C106.689 56.9555 103.067 59.4479 101.976 63.5205L100.605 68.6329Z" fill="#3A4E66"/>
</g>
<path d="M120 36C128.837 36 136 28.8366 136 20C136 11.1634 128.837 4 120 4C111.163 4 104 11.1634 104 20C104 28.8366 111.163 36 120 36Z" fill="#D9DEFB"/>
<path fill-rule="evenodd" clip-rule="evenodd" d="M117.651 9.89118C115.682 11.8599 111.957 15.585 109.988 17.5537C109.346 18.1957 108.985 19.0668 108.985 19.9748C108.985 20.8829 109.346 21.754 109.988 22.396C111.957 24.3647 115.682 28.0898 117.651 30.0585C118.293 30.7006 119.164 31.0614 120.072 31.0614C120.98 31.0614 121.851 30.7006 122.493 30.0585C124.462 28.0898 128.187 24.3647 130.156 22.396C130.798 21.754 131.159 20.8829 131.159 19.9748C131.159 19.0668 130.798 18.1957 130.156 17.5537C128.187 15.585 124.462 11.8599 122.493 9.89118C121.851 9.24893 120.98 8.88818 120.072 8.88818C119.164 8.88818 118.293 9.24893 117.651 9.89118Z" fill="#EB6326"/>
<path fill-rule="evenodd" clip-rule="evenodd" d="M119.463 11.7035L111.8 19.3659C111.639 19.5274 111.548 19.7466 111.548 19.9749C111.548 20.2034 111.639 20.4224 111.8 20.5841C113.769 22.5526 117.494 26.2778 119.463 28.2464C119.624 28.408 119.843 28.4987 120.072 28.4987C120.3 28.4987 120.519 28.408 120.681 28.2464C122.65 26.2778 126.375 22.5526 128.343 20.5841C128.505 20.4224 128.596 20.2034 128.596 19.9749C128.596 19.7466 128.505 19.5274 128.343 19.3659C126.375 17.3972 122.65 13.6721 120.681 11.7035C120.519 11.542 120.3 11.4512 120.072 11.4512C119.843 11.4512 119.624 11.542 119.463 11.7035Z" fill="#FFC9B0"/>
<path fill-rule="evenodd" clip-rule="evenodd" d="M120.072 22.6891C119.473 22.6891 118.987 23.175 118.987 23.7735C118.987 24.3721 119.473 24.858 120.072 24.858C120.67 24.858 121.156 24.3721 121.156 23.7735C121.156 23.175 120.67 22.6891 120.072 22.6891ZM118.737 16.0419C118.737 16.0471 118.737 16.0523 118.738 16.0576L118.988 21.0113C118.993 21.6053 119.477 22.0861 120.072 22.0861C120.668 22.0861 121.152 21.6043 121.156 21.0094C121.156 21.0113 121.406 16.0576 121.406 16.0576C121.407 16.0523 121.407 16.0471 121.407 16.0419C121.407 15.3051 120.809 14.707 120.072 14.707C119.335 14.707 118.737 15.3051 118.737 16.0419Z" fill="#EB6326"/>
<defs>
<clipPath id="clip0_1472_9101">
<rect y="6" width="140" height="140" rx="70" fill="white"/>
</clipPath>
</defs>
</svg>
