<svg width="40" height="40" viewBox="0 0 40 40" fill="none" xmlns="http://www.w3.org/2000/svg">
<path fill-rule="evenodd" clip-rule="evenodd" d="M10.9949 32.1912C10.9949 32.0187 10.8551 31.879 10.6828 31.879H7.17482C7.00239 31.879 6.86261 32.0187 6.86261 32.1912V35.2704C6.86261 35.4428 7.00239 35.5825 7.17482 35.5825H10.6828C10.8551 35.5825 10.9949 35.4428 10.9949 35.2704V32.1912ZM10.9949 19.913C10.9949 19.7407 10.8551 19.6009 10.6828 19.6009H7.17482C7.00239 19.6009 6.86261 19.7407 6.86261 19.913V22.8364C6.86261 23.0087 7.00239 23.1485 7.17482 23.1485H10.6828C10.8551 23.1485 10.9949 23.0087 10.9949 22.8364V19.913ZM10.6828 10.8704C10.8551 10.8704 10.9949 10.7306 10.9949 10.5582V7.84494C10.9949 7.67251 10.8551 7.53288 10.6828 7.53288H7.17482C7.00239 7.53288 6.86261 7.67251 6.86261 7.84494V10.5582C6.86261 10.7306 7.00239 10.8704 7.17482 10.8704H10.6828Z" fill="#2E2A48"/>
<path fill-rule="evenodd" clip-rule="evenodd" d="M22.0322 32.1912C22.0322 32.0187 21.8924 31.879 21.7201 31.879H18.2121C18.0397 31.879 17.8999 32.0187 17.8999 32.1912V35.2704C17.8999 35.4428 18.0397 35.5825 18.2121 35.5825H21.7201C21.8924 35.5825 22.0322 35.4428 22.0322 35.2704V32.1912ZM22.0322 19.913C22.0322 19.7407 21.8924 19.6009 21.7201 19.6009H18.2121C18.0397 19.6009 17.8999 19.7407 17.8999 19.913V22.8364C17.8999 23.0087 18.0397 23.1485 18.2121 23.1485H21.7201C21.8924 23.1485 22.0322 23.0087 22.0322 22.8364V19.913ZM21.7201 10.8704C21.8924 10.8704 22.0322 10.7306 22.0322 10.5582V7.84494C22.0322 7.67251 21.8924 7.53288 21.7201 7.53288H18.2121C18.0397 7.53288 17.8999 7.67251 17.8999 7.84494V10.5582C17.8999 10.7306 18.0397 10.8704 18.2121 10.8704H21.7201Z" fill="#2E2A48"/>
<path fill-rule="evenodd" clip-rule="evenodd" d="M33.0695 32.1912C33.0695 32.0187 32.9298 31.879 32.7575 31.879H29.2495C29.077 31.879 28.9373 32.0187 28.9373 32.1912V35.2704C28.9373 35.4428 29.077 35.5825 29.2495 35.5825H32.7575C32.9298 35.5825 33.0695 35.4428 33.0695 35.2704V32.1912ZM33.0695 19.913C33.0695 19.7407 32.9298 19.6009 32.7575 19.6009H29.2495C29.077 19.6009 28.9373 19.7407 28.9373 19.913V22.8364C28.9373 23.0087 29.077 23.1485 29.2495 23.1485H32.7575C32.9298 23.1485 33.0695 23.0087 33.0695 22.8364V19.913ZM32.7575 10.8704C32.9298 10.8704 33.0695 10.7306 33.0695 10.5582V7.84494C33.0695 7.67251 32.9298 7.53288 32.7575 7.53288H29.2495C29.077 7.53288 28.9373 7.67251 28.9373 7.84494V10.5582C28.9373 10.7306 29.077 10.8704 29.2495 10.8704H32.7575Z" fill="#2E2A48"/>
<path fill-rule="evenodd" clip-rule="evenodd" d="M6.71416 5.02367H11.1434C11.3158 5.02367 11.4556 4.88389 11.4556 4.71146C11.4556 3.317 10.3233 2.18472 8.92884 2.18472C7.53423 2.18472 6.4021 3.317 6.4021 4.71146C6.4021 4.88389 6.54173 5.02367 6.71416 5.02367Z" fill="#BDDEF5"/>
<path fill-rule="evenodd" clip-rule="evenodd" d="M17.7515 5.02367H22.1807L22.4929 4.71146C22.4929 3.317 21.3606 2.18472 19.9661 2.18472C18.5715 2.18472 17.4394 3.317 17.4394 4.71146L17.7515 5.02367Z" fill="#BDDEF5"/>
<path fill-rule="evenodd" clip-rule="evenodd" d="M28.7887 5.02367H33.218L33.5302 4.71146C33.5302 3.317 32.3979 2.18472 31.0034 2.18472C29.6088 2.18472 28.4767 3.317 28.4767 4.71146C28.4767 4.88389 28.6165 5.02367 28.7887 5.02367Z" fill="#BDDEF5"/>
<path fill-rule="evenodd" clip-rule="evenodd" d="M4.68765 37.7652H35.2447C36.0192 37.7652 36.6481 37.1365 36.6481 36.3618C36.6481 35.5871 36.0192 34.9584 35.2447 34.9584H4.68765C3.91297 34.9584 3.28406 35.5871 3.28406 36.3618C3.28406 37.1365 3.91297 37.7652 4.68765 37.7652Z" fill="#684135"/>
<path fill-rule="evenodd" clip-rule="evenodd" d="M12.6774 5.33573C12.6774 5.08734 12.5789 4.84929 12.4031 4.67371C12.2275 4.49798 11.9895 4.3994 11.7411 4.3994C10.4343 4.3994 7.42335 4.3994 6.11638 4.3994C5.86814 4.3994 5.62994 4.49798 5.45436 4.67371C5.27878 4.84929 5.18005 5.08734 5.18005 5.33573C5.18005 5.8827 5.18005 6.67371 5.18005 7.22067C5.18005 7.46906 5.27878 7.70727 5.45436 7.88285C5.62994 8.05843 5.86814 8.157 6.11638 8.157C7.42335 8.157 10.4343 8.157 11.7411 8.157C11.9895 8.157 12.2275 8.05843 12.4031 7.88285C12.5789 7.70727 12.6774 7.46906 12.6774 7.22067V5.33573Z" fill="#3A4E66"/>
<path fill-rule="evenodd" clip-rule="evenodd" d="M23.7148 5.33573C23.7148 5.08734 23.6162 4.84929 23.4406 4.67371C23.2649 4.49798 23.0268 4.3994 22.7785 4.3994C21.4716 4.3994 18.4607 4.3994 17.1537 4.3994C16.9055 4.3994 16.6673 4.49798 16.4917 4.67371C16.3161 4.84929 16.2174 5.08734 16.2174 5.33573C16.2174 5.8827 16.2174 6.67371 16.2174 7.22067C16.2174 7.46906 16.3161 7.70727 16.4917 7.88285C16.6673 8.05843 16.9055 8.157 17.1537 8.157C18.4607 8.157 21.4716 8.157 22.7785 8.157C23.0268 8.157 23.2649 8.05843 23.4406 7.88285C23.6162 7.70727 23.7148 7.46906 23.7148 7.22067V5.33573Z" fill="#3A4E66"/>
<path fill-rule="evenodd" clip-rule="evenodd" d="M34.7521 5.33573C34.7521 5.08734 34.6535 4.84929 34.4779 4.67371C34.3022 4.49798 34.0641 4.3994 33.8157 4.3994C32.5089 4.3994 29.498 4.3994 28.191 4.3994C27.9428 4.3994 27.7046 4.49798 27.529 4.67371C27.3534 4.84929 27.2547 5.08734 27.2547 5.33573C27.2547 5.8827 27.2547 6.67371 27.2547 7.22067C27.2547 7.46906 27.3534 7.70727 27.529 7.88285C27.7046 8.05843 27.9428 8.157 28.191 8.157C29.498 8.157 32.5089 8.157 33.8157 8.157C34.0641 8.157 34.3022 8.05843 34.4779 7.88285C34.6535 7.70727 34.7521 7.46906 34.7521 7.22067V5.33573Z" fill="#3A4E66"/>
<path fill-rule="evenodd" clip-rule="evenodd" d="M36.6481 14.1958C36.6481 13.1483 36.2319 12.1437 35.4912 11.403C34.7505 10.6622 33.7459 10.2461 32.6984 10.2461C26.3991 10.2461 13.5312 10.2461 7.23189 10.2461C6.1844 10.2461 5.17975 10.6622 4.43908 11.403C3.69826 12.1437 3.28223 13.1483 3.28223 14.1958C3.28223 14.8787 3.28223 15.5927 3.28223 16.2754C3.28223 17.323 3.69826 18.3275 4.43908 19.0683C5.17975 19.809 6.1844 20.2252 7.23189 20.2252C13.5312 20.2252 26.3991 20.2252 32.6984 20.2252C33.7459 20.2252 34.7505 19.809 35.4912 19.0683C36.2319 18.3275 36.6481 17.323 36.6481 16.2754V14.1958Z" fill="#E8F3FF"/>
<path fill-rule="evenodd" clip-rule="evenodd" d="M9.83069 10.2461H7.23188C6.21031 10.2461 5.22964 10.6418 4.49451 11.3485L7.96971 14.5467C8.16237 14.7239 8.27203 14.9738 8.27203 15.2357C8.27203 15.4974 8.16237 15.7473 7.96971 15.9246L4.53241 19.1587C5.26305 19.8427 6.22769 20.2252 7.23188 20.2252H9.83069L13.4836 16.8635C13.9389 16.4446 14.1979 15.8542 14.1979 15.2357C14.1979 14.6169 13.9389 14.0267 13.4836 13.6078L9.83069 10.2461Z" fill="#FF8659"/>
<path fill-rule="evenodd" clip-rule="evenodd" d="M20.178 10.2461H13.6439L18.3172 14.5467C18.5098 14.7239 18.6195 14.9738 18.6195 15.2357C18.6195 15.4974 18.5098 15.7473 18.3172 15.9246L13.6439 20.2252H20.178L23.831 16.8635C24.2862 16.4446 24.5452 15.8542 24.5452 15.2357C24.5452 14.6169 24.2862 14.0267 23.831 13.6078L20.178 10.2461Z" fill="#FF8659"/>
<path fill-rule="evenodd" clip-rule="evenodd" d="M30.2346 10.2461H23.7005L28.3736 14.5467C28.5663 14.7239 28.6759 14.9738 28.6759 15.2357C28.6759 15.4974 28.5663 15.7473 28.3736 15.9246L23.7005 20.2252H30.2346L33.8875 16.8635C34.3427 16.4446 34.6018 15.8542 34.6018 15.2357C34.6018 14.6169 34.3427 14.0267 33.8875 13.6078L30.2346 10.2461Z" fill="#FF8659"/>
<path fill-rule="evenodd" clip-rule="evenodd" d="M36.3558 26.474C36.3558 25.4264 35.9396 24.4219 35.1989 23.681C34.4583 22.9404 33.4536 22.5242 32.406 22.5242C26.1068 22.5242 13.2388 22.5242 6.93962 22.5242C5.89198 22.5242 4.88734 22.9404 4.14666 23.681C3.40599 24.4219 2.98981 25.4264 2.98981 26.474C2.98981 27.1567 2.98981 27.8707 2.98981 28.5536C2.98981 29.601 3.40599 30.6057 4.14666 31.3464C4.88734 32.087 5.89198 32.5032 6.93962 32.5032C13.2388 32.5032 26.1068 32.5032 32.406 32.5032C33.4536 32.5032 34.4583 32.087 35.1989 31.3464C35.9396 30.6057 36.3558 29.601 36.3558 28.5536V26.474Z" fill="#E8F3FF"/>
<path fill-rule="evenodd" clip-rule="evenodd" d="M9.53845 22.5242H6.93965C5.91808 22.5242 4.93725 22.92 4.20227 23.6267L7.67748 26.8247C7.87014 27.0021 7.9798 27.252 7.9798 27.5137C7.9798 27.7756 7.87014 28.0255 7.67748 28.2027L4.20227 31.4007C4.93725 32.1076 5.91808 32.5032 6.93965 32.5032H9.53845L13.1913 29.1416C13.6465 28.7227 13.9055 28.1324 13.9055 27.5137C13.9055 26.8951 13.6465 26.3047 13.1913 25.8858L9.53845 22.5242ZM19.8857 22.5242H13.3516L18.0249 26.8247C18.2176 27.0021 18.3271 27.252 18.3271 27.5137C18.3271 27.7756 18.2176 28.0255 18.0249 28.2027L13.3516 32.5032H19.8857L23.5386 29.1416C23.9939 28.7227 24.2529 28.1324 24.2529 27.5137C24.2529 26.8951 23.9939 26.3047 23.5386 25.8858L19.8857 22.5242ZM29.9423 22.5242H23.4083L28.0814 26.8247C28.274 27.0021 28.3837 27.252 28.3837 27.5137C28.3837 27.7756 28.274 28.0255 28.0814 28.2027L23.4083 32.5032H29.9423L33.5952 29.1416C34.0504 28.7227 34.3094 28.1324 34.3094 27.5137C34.3094 26.8951 34.0504 26.3047 33.5952 25.8858L29.9423 22.5242Z" fill="#FF8659"/>
</svg>
