<svg width="188" height="188" viewBox="0 0 188 188" fill="none" xmlns="http://www.w3.org/2000/svg">
<g clip-path="url(#clip0_151_3186)">
<rect width="188" height="188" rx="94" fill="#E4E9FF"/>
<rect y="124" width="188" height="87" fill="#293A92" fill-opacity="0.3"/>
<path fill-rule="evenodd" clip-rule="evenodd" d="M56.2766 55.2185C56.189 55.5468 56.2587 55.8971 56.4653 56.1666C56.6719 56.4361 56.9923 56.5939 57.3321 56.5939H101.938C106.049 56.5939 109.381 59.9266 109.381 64.0375V142.297C109.381 142.73 109.637 143.122 110.033 143.297C110.43 143.472 110.892 143.395 111.211 143.103C112.518 141.907 113.511 140.336 114.004 138.497C118.875 120.32 130.489 76.9731 135.36 58.7956C136.736 53.6591 133.688 48.38 128.552 47.0036C114.586 43.2614 86.4379 35.7192 72.472 31.977C67.3361 30.6006 62.0564 33.6491 60.68 38.7851L56.2766 55.2185Z" fill="#0D1C65"/>
<path fill-rule="evenodd" clip-rule="evenodd" d="M107.206 58.7788C108.55 60.1253 109.381 61.9841 109.381 64.0375V142.297C109.381 142.73 109.637 143.122 110.033 143.297C110.43 143.471 110.892 143.395 111.211 143.103C112.518 141.907 113.511 140.336 114.004 138.497L118.12 123.135V68.4068C118.12 63.0894 113.81 58.7788 108.492 58.7788H107.206Z" fill="#293A92"/>
<path fill-rule="evenodd" clip-rule="evenodd" d="M34.2515 131.746C34.2515 132.036 34.3668 132.314 34.5718 132.519L57.9115 155.859C58.1165 156.064 58.3944 156.178 58.6838 156.178H101.938C107.255 156.178 111.566 151.868 111.566 146.55C111.566 127.732 111.566 82.8562 111.566 64.0375C111.566 58.7196 107.255 54.4089 101.938 54.4089C87.4798 54.4089 58.3378 54.4089 43.88 54.4089C38.5621 54.4089 34.2515 58.7196 34.2515 64.0375V131.746Z" fill="white"/>
<path fill-rule="evenodd" clip-rule="evenodd" d="M56.7825 77.2219H89.035C91.405 77.2219 93.3283 75.2981 93.3283 72.9286C93.3283 70.5591 91.405 68.6353 89.035 68.6353H56.7825C54.413 68.6353 52.4892 70.5591 52.4892 72.9286C52.4892 75.2981 54.413 77.2219 56.7825 77.2219Z" fill="#0D1C65"/>
<path fill-rule="evenodd" clip-rule="evenodd" d="M47.8776 93.5821H97.9404C98.5429 93.5821 99.0327 93.0929 99.0327 92.4899C99.0327 91.8869 98.5429 91.3977 97.9404 91.3977H47.8776C47.2746 91.3977 46.7854 91.8869 46.7854 92.4899C46.7854 93.0929 47.2746 93.5821 47.8776 93.5821Z" fill="#0D1C65"/>
<path fill-rule="evenodd" clip-rule="evenodd" d="M47.8776 107.809H97.9404C98.5429 107.809 99.0327 107.319 99.0327 106.716C99.0327 106.113 98.5429 105.624 97.9404 105.624H47.8776C47.2746 105.624 46.7854 106.113 46.7854 106.716C46.7854 107.319 47.2746 107.809 47.8776 107.809Z" fill="#0D1C65"/>
<path fill-rule="evenodd" clip-rule="evenodd" d="M47.8776 122.035H97.9404C98.5429 122.035 99.0327 121.546 99.0327 120.943C99.0327 120.34 98.5429 119.85 97.9404 119.85H47.8776C47.2746 119.85 46.7854 120.34 46.7854 120.943C46.7854 121.546 47.2746 122.035 47.8776 122.035Z" fill="#0D1C65"/>
<path fill-rule="evenodd" clip-rule="evenodd" d="M34.2515 130.654V131.746C34.2515 132.036 34.3668 132.314 34.5718 132.519L57.9115 155.859C58.1165 156.064 58.3944 156.178 58.6838 156.178H59.7766V140.282C59.7766 134.964 55.4659 130.654 50.148 130.654H34.2515Z" fill="#0D1C65"/>
<path fill-rule="evenodd" clip-rule="evenodd" d="M136.939 77.2415L120.631 138.1C120.217 139.644 120.32 141.809 120.713 144.093C121.266 147.311 122.367 150.782 123.114 152.928C123.41 153.837 124.077 154.463 124.88 154.678C125.682 154.894 126.573 154.686 127.285 154.047C129.004 152.562 131.694 150.105 133.782 147.594C135.263 145.813 136.434 143.989 136.848 142.445L153.155 81.5867C154.621 76.1178 152.082 70.7873 147.675 69.6065C143.268 68.4256 138.404 71.7725 136.939 77.2415Z" fill="#293A92"/>
<path fill-rule="evenodd" clip-rule="evenodd" d="M120.449 142.143C120.509 142.774 120.598 143.428 120.713 144.093C121.266 147.311 122.366 150.782 123.114 152.928C123.41 153.837 124.077 154.463 124.88 154.678C125.682 154.894 126.573 154.685 127.285 154.047C129.004 152.562 131.694 150.105 133.781 147.594C134.212 147.076 134.617 146.554 134.984 146.037L120.449 142.143Z" fill="#3A4E66"/>
<path fill-rule="evenodd" clip-rule="evenodd" d="M122.077 132.704L120.631 138.1C120.217 139.644 120.32 141.809 120.713 144.093C120.84 144.831 120.996 145.584 121.169 146.331L132.267 149.304C132.791 148.744 133.302 148.171 133.782 147.594C135.263 145.812 136.434 143.989 136.848 142.445L138.294 137.049L122.077 132.704Z" fill="#FFEFE0"/>
<path fill-rule="evenodd" clip-rule="evenodd" d="M136.804 126.297L140.956 110.802C141.111 110.22 140.765 109.62 140.183 109.465C139.601 109.308 139.001 109.654 138.845 110.237L134.693 125.731C134.537 126.313 134.883 126.913 135.466 127.069C136.048 127.225 136.648 126.879 136.804 126.297Z" fill="#FFEFE0"/>
<path fill-rule="evenodd" clip-rule="evenodd" d="M151.327 88.4095L150.649 90.9394L134.432 86.5942L135.11 84.0642L151.327 88.4095Z" fill="#FFEFE0"/>
<path fill-rule="evenodd" clip-rule="evenodd" d="M130.855 124.703L135.006 109.208C135.162 108.626 134.816 108.026 134.234 107.871C133.651 107.714 133.052 108.06 132.896 108.643L128.744 124.137C128.588 124.719 128.934 125.319 129.516 125.475C130.099 125.631 130.698 125.285 130.855 124.703Z" fill="#FFEFE0"/>
<path fill-rule="evenodd" clip-rule="evenodd" d="M135.099 84.1067L151.316 88.4519L153.155 81.5867C154.621 76.1178 152.082 70.7873 147.675 69.6065C143.268 68.4256 138.404 71.7725 136.939 77.2415L135.099 84.1067Z" fill="#3A4E66"/>
</g>
<defs>
<clipPath id="clip0_151_3186">
<rect width="188" height="188" rx="94" fill="white"/>
</clipPath>
</defs>
</svg>
